<?xml version="1.0" encoding="utf-8"?>
<!DOCTYPE svg PUBLIC "-//W3C//DTD SVG 1.0//EN" "http://www.w3.org/TR/2001/REC-SVG-20010904/DTD/svg10.dtd">
<svg version="1.0" xmlns="http://www.w3.org/2000/svg" width="517px" height="517px" viewBox="0 0 517 517" preserveAspectRatio="xMidYMid meet">
 <g fill="#162030">
  
  <path d="M319.84 342.71 c-12.12 -4.95 -28.93 -15.10 -37.11 -22.47 -2.27 -2.07 -2.52 -2.47 -2.52 -4.44 0 -3.43 0.20 -3.53 9.59 -5.81 7.07 -1.67 7.22 -1.67 18.78 4.09 15.40 7.67 27.31 12.12 37.77 14.09 3.18 0.61 6.61 1.36 7.57 1.72 1.77 0.61 1.77 0.66 1.92 3.79 0.15 3.03 0.10 3.23 -1.62 4.85 -3.53 3.33 -13.33 6.21 -22.52 6.61 l-5.30 0.25 -6.56 -2.68z"/>
  <path d="M360.49 324.84 c-5.65 -0.71 -14.44 -2.63 -23.12 -5 -14.64 -4.04 -17.42 -5.25 -27.36 -12.12 -6.36 -4.39 -9.04 -5.81 -11.06 -5.81 -0.81 0 -3.89 1.16 -6.87 2.63 -4.70 2.27 -5.81 2.63 -9.29 2.83 -7.22 0.40 -9.14 -1.11 -9.14 -7.17 0 -2.78 0.20 -3.48 1.31 -4.80 0.71 -0.91 1.72 -1.82 2.22 -2.07 0.45 -0.25 5.05 -1.51 10.15 -2.78 10.10 -2.52 11.97 -3.13 22.16 -7.17 12.42 -5 19.99 -9.14 33.07 -18.18 5 -3.43 14.69 -10 21.56 -14.49 13.78 -9.14 16.56 -11.26 18.68 -14.14 1.87 -2.57 1.77 -3.99 -0.40 -7.37 -3.74 -5.91 -6.11 -18.07 -7.07 -36.10 -0.40 -7.52 -0.10 -9.54 2.93 -22.21 l2.07 -8.58 2.88 -2.83 c1.62 -1.57 4.09 -3.43 5.60 -4.14 2.42 -1.26 3.18 -1.36 8.63 -1.36 5.60 0 6.06 0.10 7.12 1.16 0.61 0.66 2.02 1.41 3.13 1.77 2.78 0.81 5.05 2.52 8.43 6.56 3.23 3.74 6.41 9.49 7.67 13.68 1.06 3.69 1.01 10.70 -0.15 22.27 -1.57 14.74 -1.67 15.10 -10.45 28.27 -6.26 9.44 -8.03 13.33 -7.62 16.71 0.15 1.31 1.77 7.22 3.58 13.13 1.82 5.96 3.89 13.53 4.64 16.86 1.21 5.60 1.26 6.77 1.06 14.89 -0.25 9.95 -1.01 13.53 -4.24 19.84 -3.58 7.12 -10.80 12.47 -19.69 14.54 -3.69 0.91 -6.46 1.06 -16.56 1.21 -6.66 0.10 -12.93 0.05 -13.88 -0.05z m21.81 -12.47 c14.69 -3.84 21.51 -12.22 22.42 -27.62 0.25 -4.09 0.10 -5.50 -1.01 -9.74 -1.67 -6.56 -7.22 -20.30 -8.94 -22.11 -3.48 -3.74 -6.71 -2.52 -24.94 9.29 -3.89 2.47 -9.54 6.16 -12.62 8.13 -9.69 6.26 -21.56 14.49 -26.15 18.13 -4.49 3.53 -6.82 6.31 -7.83 9.34 -0.50 1.51 -0.45 1.77 1.01 3.43 3.79 4.29 18.68 9.64 33.57 12.07 6.92 1.11 18.28 0.71 24.49 -0.91z m17.82 -95.17 c2.93 -1.62 5.81 -5.86 8.38 -12.47 5.50 -14.04 5.50 -25.14 0.05 -31.15 -4.44 -4.90 -9.85 -5.35 -13.78 -1.06 -3.84 4.04 -5.50 10.35 -5.50 20.60 0 13.48 1.41 19.89 5.05 23.63 1.06 1.01 2.22 1.87 2.57 1.87 0.40 0 1.82 -0.66 3.23 -1.41z"/>
  <path d="M246.74 311.66 c-0.20 -0.15 -0.35 -2.52 -0.35 -5.25 0 -4.14 0.25 -5.76 1.51 -9.59 1.72 -5.30 2.73 -6.97 7.78 -13.08 9.90 -11.97 16.51 -19.03 28.12 -30.04 9.39 -8.89 18.23 -20.30 21.15 -27.42 0.81 -1.87 2.22 -7.02 3.23 -11.46 3.58 -15.90 1.97 -25.09 -6.26 -36.05 -5.40 -7.17 -11.26 -11.41 -19.59 -14.34 -3.58 -1.26 -5.15 -1.51 -8.68 -1.51 -5.25 0.05 -8.23 1.01 -15.75 5.20 -4.54 2.52 -5.81 3.03 -7.83 3.03 -3.03 0 -3.69 -0.61 -3.69 -3.23 0 -7.07 2.78 -9.59 16.91 -15.60 10.45 -4.44 11.41 -4.64 20.70 -4.59 7.32 0 8.53 0.15 12.62 1.41 11.06 3.33 17.82 8.13 23.43 16.46 3.33 4.95 4.70 8.18 6.26 14.89 0.96 4.04 1.11 6.06 1.11 17.42 0 12.52 -0.05 13.03 -1.41 17.87 -2.57 9.29 -10.70 27.77 -13.99 31.86 -0.91 1.11 -2.02 2.83 -2.52 3.79 -0.50 0.96 -6.31 7.12 -12.98 13.63 -8.53 8.43 -13.38 13.63 -16.66 17.97 -2.88 3.79 -7.17 8.53 -11.21 12.37 -3.58 3.43 -8.03 8.13 -9.90 10.45 -4.09 5.10 -5.65 6.16 -9.14 6.16 -1.41 0 -2.73 -0.15 -2.88 -0.35z"/>
  <path d="M85.83 305.05 c-4.04 -1.36 -8.73 -3.89 -10.50 -5.60 -3.23 -3.23 -4.44 -11.56 -2.93 -20.25 1.36 -7.83 3.33 -11.31 11.06 -19.54 5.55 -5.96 8.58 -11.21 8.08 -13.93 -0.15 -0.91 -1.97 -5.60 -4.04 -10.45 -2.12 -4.85 -4.44 -10.60 -5.25 -12.82 -1.87 -5.05 -3.79 -14.49 -4.49 -22.27 -0.30 -3.33 -0.76 -7.98 -1.06 -10.35 -0.35 -3.08 -0.35 -5.65 0.05 -8.84 0.71 -5.76 3.23 -15.85 4.80 -19.29 4.80 -10.55 16.31 -19.69 29.18 -23.12 8.58 -2.32 21.96 -1.41 27.87 1.92 4.59 2.57 5.60 6.87 5.10 21.31 -0.20 5.25 -0.66 12.07 -1.06 15.15 -0.81 6.16 -4.80 22.77 -8.78 36.60 -1.41 4.85 -2.57 9.29 -2.57 9.90 0 0.61 0.40 1.62 0.91 2.22 1.31 1.67 3.53 1.11 8.13 -2.02 4.14 -2.78 5.15 -3.18 7.67 -2.93 1.51 0.15 1.77 0.40 2.17 1.97 1.51 6.06 -4.29 12.72 -18.23 20.95 -14.14 8.38 -13.83 10.10 2.52 14.39 7.62 1.97 14.64 4.85 17.92 7.32 1.51 1.16 1.62 1.46 1.62 4.24 0 4.85 -1.11 5.35 -10.40 4.85 -7.42 -0.40 -14.19 -1.97 -19.29 -4.54 -1.97 -1.01 -3.74 -1.82 -3.84 -1.82 -0.45 0 -2.32 4.70 -3.64 9.04 -1.67 5.60 -1.82 6.06 -5.35 14.54 -3.43 8.18 -5.10 10.40 -9.29 12.52 -2.68 1.36 -3.53 1.51 -8.28 1.62 -4.04 0.10 -5.96 -0.10 -8.08 -0.76z m9.34 -13.03 c2.27 -2.27 7.42 -15.30 8.84 -22.52 l1.11 -5.35 -1.06 -2.32 c-1.21 -2.83 -2.22 -2.98 -5.71 -0.76 -6.92 4.44 -14.14 16.56 -14.84 24.94 -0.35 3.94 0.71 6.16 3.69 7.62 1.87 0.96 2.47 1.01 4.24 0.56 1.16 -0.25 2.83 -1.26 3.74 -2.17z m16.76 -54.27 c1.87 -0.71 4.09 -2.83 5.20 -5 1.87 -3.69 2.93 -8.08 7.62 -30.49 2.47 -11.92 3.13 -14.09 5.71 -19.74 l2.07 -4.54 0 -8.33 c0 -7.78 -0.10 -8.48 -1.21 -10.75 -2.32 -4.70 -8.38 -9.44 -12.07 -9.44 -2.93 0 -7.37 2.83 -11.92 7.62 -9.14 9.54 -14.59 20.30 -16.76 32.77 -0.91 5.50 -0.50 10.50 1.57 19.08 2.02 8.28 7.88 22.42 10.50 25.29 3.33 3.58 6.21 4.70 9.29 3.53z"/>
  <path d="M222.15 300.25 c-1.31 -0.71 -9.79 -8.78 -27.42 -26.10 -10.55 -10.40 -19.59 -21.05 -24.08 -28.48 -5 -8.23 -10.25 -22.11 -12.17 -32.11 -1.57 -8.18 -1.97 -26.76 -0.71 -32.92 0.96 -4.75 3.58 -11.97 5.45 -14.84 4.44 -7.07 13.03 -13.48 22.06 -16.46 4.75 -1.62 4.95 -1.62 14.64 -1.67 11.11 0 14.14 0.56 23.12 4.34 6.66 2.73 11.66 6.56 14.09 10.75 1.01 1.72 0.81 5 -0.35 6.26 -1.72 1.82 -4.14 1.46 -8.03 -1.16 -2.37 -1.62 -5.55 -3.03 -10.91 -4.85 -6.82 -2.37 -8.03 -2.63 -13.13 -2.88 -10.15 -0.45 -15.85 1.77 -22.97 8.94 -9.34 9.39 -11.61 18.02 -8.89 33.88 2.27 13.43 4.24 19.03 10.65 30.29 3.79 6.66 14.94 20.90 28.78 36.86 11.61 13.38 17.87 22.27 18.33 26 0.20 1.87 0.05 2.37 -1.06 3.48 -1.06 1.06 -1.82 1.31 -3.74 1.31 -1.31 0 -2.98 -0.30 -3.69 -0.66z"/>
  <path d="M234.47 292.48 c-2.78 -5.20 -6.87 -11.41 -12.32 -18.83 -2.12 -2.93 -5.71 -7.93 -7.98 -11.11 -2.27 -3.18 -7.42 -10 -11.51 -15.15 -4.04 -5.15 -8.53 -11.06 -9.95 -13.13 -1.41 -2.07 -3.58 -5.15 -4.90 -6.82 -2.98 -3.94 -3.13 -4.34 -5.60 -15.15 -5.35 -23.58 -5.30 -24.08 0.40 -35.14 3.43 -6.71 5.05 -8.63 8.38 -10.25 7.17 -3.53 22.62 -2.42 28.73 1.97 0.91 0.66 3.28 1.97 5.20 2.93 6.36 3.13 10.60 6.56 14.24 11.51 l3.33 4.54 1.51 -1.41 c0.81 -0.76 2.68 -3.08 4.24 -5.10 3.03 -3.99 6.31 -6.77 11.01 -9.09 4.95 -2.47 7.93 -3.13 14.14 -3.13 9.29 0 13.53 1.62 19.49 7.57 8.28 8.18 11.66 18.23 10.85 32.21 -0.35 6.61 -1.41 10.75 -4.04 15.90 -5.30 10.55 -11.31 17.67 -26.15 31.20 -5.45 5 -11.81 11.11 -14.04 13.63 -5.86 6.51 -12.42 15.55 -15.85 21.81 -2.93 5.40 -2.93 5.40 -4.85 5.40 -1.92 0 -1.97 -0.05 -4.34 -4.39z m57.10 -86.28 c2.88 -5.86 0.40 -15.20 -5.55 -20.85 -3.33 -3.18 -6.31 -4.64 -9.79 -4.95 -2.27 -0.15 -3.18 0 -4.44 0.81 -2.73 1.72 -2.17 2.47 2.52 3.43 8.23 1.72 12.77 7.98 13.73 18.83 0.50 5.55 1.67 6.46 3.53 2.73z"/>
  <path d="M293.84 277.03 c0 -1.62 0.45 -2.78 1.77 -4.80 1.67 -2.42 1.97 -2.63 3.79 -2.63 2.02 0 2.02 0 2.02 2.02 0 1.82 0.10 2.02 1.31 2.02 1.16 0 1.26 0.15 1.11 1.87 -0.15 1.72 -0.30 1.92 -2.68 2.73 -1.36 0.50 -3.58 0.91 -4.90 0.91 l-2.42 0.05 0 -2.17z"/>
  <path d="M324.13 239.57 c0 -2.17 1.01 -2.78 4.49 -2.78 l2.57 0 0 1.77 c0 2.17 -1.01 2.78 -4.49 2.78 l-2.57 0 0 -1.77z"/>
  <path d="M441.02 216.65 c-1.36 -0.50 -3.94 -1.62 -5.60 -2.47 -1.72 -0.86 -4.14 -1.82 -5.45 -2.17 l-2.32 -0.56 0 -3.13 c0.05 -1.67 0.35 -4.44 0.81 -6.11 0.40 -1.67 0.96 -7.22 1.31 -12.37 0.66 -11.41 0.76 -11.61 5.91 -11.61 6.01 0 7.72 2.02 11.06 12.87 1.11 3.64 2.88 8.73 3.94 11.36 1.51 3.84 1.97 5.60 2.12 8.99 0.30 5.65 -0.15 6.16 -5.40 6.16 -2.37 -0.05 -4.80 -0.40 -6.36 -0.96z"/>
  <path d="M332.97 183.42 c-0.66 -3.69 -2.88 -10.50 -4.59 -13.88 -2.27 -4.49 -2.27 -6.77 -0.10 -9.29 2.68 -3.03 5.91 -4.24 11.26 -4.24 3.79 0 4.90 0.20 6.56 1.16 2.88 1.57 4.29 4.59 4.29 9.04 l0 3.38 -2.63 2.17 c-4.34 3.53 -7.12 6.61 -9.19 10.20 -1.77 3.03 -2.07 3.33 -3.64 3.33 -1.51 0 -1.72 -0.15 -1.97 -1.87z"/>
  <path d="M226.34 148.74 c-9.19 -4.49 -18.93 -7.47 -28.68 -8.89 -5.76 -0.86 -7.32 -2.57 -7.32 -8.08 0 -3.28 0.71 -5.15 2.63 -6.87 2.63 -2.42 4.39 -2.93 11.16 -3.13 l6.46 -0.20 3.79 1.87 c4.09 1.97 6.41 4.09 16 14.54 l5.40 5.91 0 2.93 c0 1.62 -0.25 3.18 -0.61 3.53 -1.21 1.21 -4.19 0.66 -8.84 -1.62z"/>
  <path d="M241.13 144.14 c-0.56 -0.40 -1.36 -0.76 -1.87 -0.76 -0.91 0 -4.34 -5 -5.55 -8.08 -1.06 -2.73 -0.81 -8.78 0.50 -12.22 1.57 -4.04 5.40 -9.74 9.39 -13.99 6.16 -6.51 14.09 -10.85 23.48 -12.77 4.14 -0.86 6.11 -0.96 14.14 -0.76 9.59 0.30 17.67 1.31 20.20 2.63 1.62 0.86 2.02 1.67 2.02 4.34 0 2.73 -1.16 3.33 -8.38 4.29 -15.65 2.07 -27.52 7.42 -36.55 16.51 -4.59 4.70 -7.07 8.63 -9.09 14.69 -2.07 6.21 -2.57 6.87 -5.20 6.87 -1.16 0 -2.57 -0.35 -3.08 -0.76z"/>
 </g>
 <g fill="rgba(245,240,232,0.9)">
  <path d="M313.18 438.29 c-1.21 -0.76 -2.42 -2.73 -5.45 -8.73 -10.15 -20.14 -25.85 -41.20 -39.89 -53.52 -5.15 -4.49 -12.22 -8.33 -18.18 -9.79 -4.85 -1.21 -14.79 -1.26 -17.92 -0.10 -1.26 0.45 -3.13 0.91 -4.14 1.06 -1.01 0.15 -5.55 1.77 -10.10 3.53 -13.88 5.50 -21.81 7.42 -30.95 7.42 -15 0 -29.13 -5.45 -39.43 -15.25 -10.75 -10.25 -15.90 -21.51 -17.67 -38.93 -0.20 -2.02 -0.56 -3.03 -1.06 -3.23 -0.45 -0.20 -3.89 0.10 -7.67 0.66 -15.70 2.17 -27.47 0.61 -41.45 -5.60 -16.66 -7.32 -32.01 -21.91 -40.19 -38.22 -3.13 -6.26 -4.80 -11.01 -6.36 -17.92 -0.91 -4.14 -1.11 -6.61 -1.11 -15.30 -0.05 -10.80 0.30 -13.93 2.52 -22.92 3.69 -14.89 11.06 -30.24 20.55 -42.66 2.02 -2.63 6.97 -7.98 11.01 -11.86 4.59 -4.44 8.23 -8.43 9.69 -10.70 7.07 -10.80 22.27 -23.02 44.58 -35.85 27.77 -15.90 57.81 -27.52 82.30 -31.71 19.69 -3.43 37.51 -3.69 51.80 -0.81 4.49 0.91 5.15 0.96 8.08 0.25 9.54 -2.17 19.94 -2.02 35.24 0.56 19.49 3.28 46.95 12.72 65.63 22.52 15.60 8.18 32.01 19.54 43.87 30.44 2.73 2.52 6.41 5.25 8.58 6.46 6.46 3.53 11.01 7.42 23.83 20.40 14.59 14.79 14.69 14.89 20.14 31.30 1.92 5.81 4.59 13.58 6.01 17.32 4.85 13.18 8.58 27.77 10.45 40.64 1.21 8.23 1.21 24.84 0.05 31.66 -2.83 16.31 -10.45 29.33 -23.98 40.90 -2.98 2.52 -6.16 5.45 -7.07 6.51 l-1.67 1.92 -0.15 8.73 c-0.15 7.57 -0.30 9.39 -1.51 13.73 -3.03 11.21 -8.03 18.83 -17.32 26.35 -4.34 3.48 -14.84 9.29 -16.91 9.29 -0.40 0 -2.52 0.45 -4.75 1.01 -2.17 0.56 -6.82 1.41 -10.30 1.87 -5.30 0.66 -7.37 0.71 -13.18 0.20 -16.26 -1.36 -25.65 -3.84 -48.27 -12.72 -3.43 -1.36 -4.29 -1.51 -4.95 -0.96 -1.26 1.06 -0.91 2.27 1.92 6.41 2.83 4.09 7.22 11.06 12.22 19.34 5 8.18 10.85 20.14 10.85 22.06 0 3.38 -4.44 6.06 -7.42 4.54 -2.07 -1.06 -2.93 -2.22 -4.59 -5.96 -3.13 -6.92 -12.87 -23.33 -20.70 -34.79 -9.29 -13.53 -21.86 -29.28 -23.43 -29.28 -0.76 0 0.61 1.97 2.88 4.29 1.26 1.21 2.27 2.52 2.27 2.83 0 0.30 0.30 0.45 0.66 0.30 0.40 -0.15 0.71 0 0.76 0.30 0 0.35 0.20 1.16 0.35 1.87 0.30 1.01 0 0.86 -1.62 -1.01 -7.67 -8.99 -23.53 -24.54 -35.49 -34.89 -4.49 -3.84 -16.61 -13.13 -20.35 -15.50 -8.33 -5.40 -21.31 -10.05 -31.40 -11.31 -5.86 -0.71 -10.75 0.20 -16.81 3.13 -9.64 4.59 -16.51 15.20 -15.60 23.93 0.71 6.97 5.30 13.18 12.07 16.36 8.03 3.84 14.54 3.48 24.13 -1.36 5.35 -2.68 8.94 -4.14 13.28 -5.35 1.57 -0.40 2.88 -0.96 2.88 -1.21 0 -0.76 -8.63 -4.95 -13.03 -6.31 -6.11 -1.92 -6.77 -1.82 -7.67 1.06 -1.06 3.38 -2.68 4.39 -7.37 4.59 -3.28 0.20 -4.09 0.05 -6.41 -1.11 -4.04 -2.02 -4.64 -3.18 -4.64 -8.99 0 -4.70 0.05 -4.95 1.57 -6.82 0.86 -1.06 2.63 -2.57 3.99 -3.43 2.07 -1.31 2.93 -1.51 7.02 -1.67 11.61 -0.50 27.97 5.55 42.06 15.65 12.47 8.94 37.61 31 43.17 37.92 2.42 3.03 0.76 2.17 -2.88 -1.46 -1.82 -1.87 -3.48 -3.23 -3.64 -3.03 -0.20 0.20 0.81 1.51 2.17 2.98 5.15 5.35 17.12 20.80 22.32 28.78 2.22 3.43 11.66 22.01 12.42 24.49 0.25 0.76 0 1.72 -0.76 2.93 -1.72 2.83 -4.90 3.53 -7.88 1.77z m83.66 -51.85 c16.46 -3.13 27.01 -12.42 31.96 -28.22 1.72 -5.60 2.17 -8.33 1.26 -8.33 -0.35 0 -2.17 0.96 -3.94 2.17 -2.32 1.51 -3.84 2.98 -5.25 5.15 -1.11 1.67 -2.78 4.19 -3.69 5.60 -3.53 5.40 -7.78 8.78 -12.02 9.59 -1.11 0.20 -3.18 0.76 -4.64 1.26 -1.41 0.50 -5.05 1.36 -8.08 2.02 -4.54 0.91 -6.41 1.06 -11.26 0.76 -8.23 -0.40 -22.42 -2.17 -24.39 -2.98 -0.86 -0.40 -3.74 -2.02 -6.36 -3.58 -2.63 -1.62 -7.02 -3.94 -9.85 -5.20 -13.03 -5.86 -37.11 -18.58 -45.94 -24.28 -7.57 -4.90 -13.43 -9.29 -26 -19.39 -2.68 -2.17 -5 -3.94 -5.20 -3.94 -0.35 0 -3.43 4.24 -3.43 4.75 0 0.15 1.41 1.21 3.18 2.37 8.99 6.06 23.83 18.68 35.80 30.39 6.66 6.51 9.24 8.43 11.41 8.43 1.62 0 4.75 1.26 8.18 3.38 17.12 10.40 39.18 18.78 53.47 20.30 6.97 0.76 20.30 0.61 24.79 -0.25z m-7.42 -20.70 c4.19 -0.96 9.54 -3.33 10.96 -4.85 1.26 -1.36 0.61 -2.73 -1.92 -3.79 -3.99 -1.67 -29.94 -0.40 -33.42 1.67 -2.32 1.31 -2.88 2.37 -2.17 3.89 0.50 1.06 1.26 1.41 4.29 2.12 8.08 1.77 16.96 2.17 22.27 0.96z m-216.75 -4.59 c-0.86 -1.06 -2.63 -3.48 -3.89 -5.45 -1.26 -1.92 -3.53 -5.45 -5.10 -7.78 -5.65 -8.63 -7.67 -15.05 -7.67 -24.23 0 -8.73 1.87 -14.59 6.82 -21.10 5.45 -7.32 17.82 -14.24 27.77 -15.55 5.86 -0.76 5.86 -0.25 0.45 -5.45 -2.68 -2.57 -5.30 -4.85 -5.81 -5.10 -3.23 -1.51 -18.73 6.77 -26.81 14.29 -10.70 10 -16.46 25.90 -14.34 39.68 2.32 15.40 11.26 27.06 23.98 31.40 1.82 0.61 3.99 1.16 4.75 1.16 l1.46 0 -1.62 -1.87z m200.19 -15.05 c5.86 -0.71 13.88 -1.51 17.92 -1.77 11.16 -0.76 11.51 -0.86 13.33 -2.78 1.01 -1.11 2.52 -1.92 4.34 -2.47 3.74 -1.01 5.81 -3.23 7.12 -7.42 1.11 -3.48 1.92 -13.08 1.16 -13.08 -0.25 0 -1.72 1.26 -3.23 2.83 -2.83 2.83 -7.57 6.46 -10.35 7.93 -2.42 1.21 -7.27 2.73 -12.22 3.84 -2.52 0.56 -6.16 1.77 -8.03 2.73 -1.92 0.96 -5.86 2.47 -8.78 3.38 -5.40 1.62 -8.28 3.18 -11.86 6.26 -2.52 2.22 -2.98 2.17 10.60 0.56z m-33.73 -3.48 c5.45 -1.16 11.51 -3.69 13.58 -5.60 1.46 -1.41 1.77 -2.02 1.62 -3.33 -0.20 -2.02 -1.01 -2.37 -9.39 -3.99 -10.50 -1.97 -20.70 -5.76 -36.55 -13.48 l-11.97 -5.86 -5.96 1.41 c-7.07 1.67 -8.08 2.07 -8.53 3.48 -1.06 3.33 23.38 19.44 39.43 25.95 6.36 2.63 6.66 2.68 10.35 2.42 2.07 -0.15 5.45 -0.61 7.42 -1.01z m97.19 -17.22 c5.71 -5.86 6.31 -8.53 4.95 -22.47 -1.41 -14.79 -2.37 -19.64 -6.61 -33.83 -3.33 -11.06 -10.25 -27.47 -12.72 -30.14 -1.41 -1.57 -2.07 -1.46 -3.58 0.50 -2.52 3.28 -2.52 3.79 -0.10 10.30 3.99 10.70 5.81 19.39 7.12 34.38 0.56 6.46 1.16 10.30 2.37 14.64 l1.62 5.91 0.05 13.43 0 13.48 1.97 -1.62 c1.11 -0.86 3.33 -2.93 4.95 -4.59z m-264 -3.48 c5.71 -8.63 16.96 -15.65 28.37 -17.72 4.85 -0.91 7.32 -1.67 7.32 -2.27 0 -0.76 -1.82 -1.92 -3.79 -2.47 -7.93 -2.17 -20.85 1.92 -27.67 8.68 -3.28 3.28 -5.05 6.31 -6.21 10.60 -0.81 2.98 -0.91 5.91 -0.25 5.91 0.20 0 1.21 -1.21 2.22 -2.73z m217.10 0.25 c8.89 -2.07 16.11 -7.42 19.69 -14.54 2.98 -5.91 3.94 -10 4.24 -18.33 0.20 -6.56 0.10 -7.93 -1.06 -13.38 -0.76 -3.33 -2.83 -10.96 -4.70 -16.91 -4.09 -13.33 -4.49 -16.71 -2.52 -21.61 0.76 -1.77 3.74 -6.82 6.61 -11.21 8.78 -13.18 8.89 -13.53 10.45 -28.27 1.57 -15.45 1.31 -18.23 -2.63 -25.75 -2.12 -4.09 -6.71 -9.79 -9.54 -11.86 -0.96 -0.71 -2.68 -1.57 -3.79 -1.87 -1.11 -0.35 -2.52 -1.11 -3.13 -1.77 -1.01 -1.06 -1.57 -1.16 -5.60 -1.16 -5.45 0 -8.38 1.26 -12.72 5.50 l-2.88 2.83 -2.07 8.58 c-2.98 12.42 -3.28 14.44 -2.93 20.20 1.16 18.23 3.38 29.28 7.12 35.19 1.36 2.17 1.82 3.38 1.82 5.35 0.15 5.05 -2.02 7.07 -19.99 18.98 -6.97 4.54 -16.71 11.16 -21.71 14.59 -13.08 9.04 -20.65 13.18 -33.07 18.18 -10.20 4.04 -12.07 4.64 -22.16 7.17 -5.10 1.26 -9.69 2.52 -10.15 2.78 -4.54 2.42 -4.64 9.14 -0.20 10.60 2.98 1.01 6.46 0.30 12.22 -2.52 4.49 -2.17 5.65 -2.52 8.23 -2.52 3.64 0 5.20 0.76 12.57 5.81 9.95 6.87 12.72 8.08 27.36 12.12 8.68 2.37 17.37 4.24 23.12 5 0.96 0.10 6.56 0.15 12.37 0.05 8.48 -0.15 11.46 -0.35 15.05 -1.21z m-137.18 -12.62 c0.91 -0.56 3.13 -2.88 5 -5.20 1.87 -2.32 6.31 -7.02 9.90 -10.45 4.04 -3.84 8.33 -8.58 11.21 -12.37 3.28 -4.34 8.13 -9.54 16.66 -17.97 6.66 -6.51 12.47 -12.67 12.98 -13.63 0.50 -0.96 1.62 -2.68 2.52 -3.79 3.28 -4.09 11.41 -22.57 13.99 -31.86 1.36 -4.80 1.41 -5.45 1.41 -16.36 0 -9.79 -0.15 -11.97 -1.11 -15.90 -1.57 -6.66 -2.93 -9.95 -6.26 -14.89 -5.60 -8.33 -12.42 -13.13 -23.43 -16.46 -3.89 -1.16 -5.50 -1.36 -11.11 -1.41 -7.57 -0.05 -9.04 0.30 -19.19 4.59 -8.94 3.79 -12.07 5.50 -14.14 7.78 -1.92 2.12 -3.18 5.76 -2.37 7.02 0.91 1.46 2.63 1.06 8.03 -1.97 8.18 -4.59 10.40 -5.25 17.32 -5.30 5.25 0 6.26 0.15 10.20 1.57 5.25 1.82 10.35 4.75 13.93 7.98 3.53 3.18 8.28 9.59 10.45 14.14 2.42 5 3.28 9.34 3.28 16.91 0 5.45 -0.25 7.42 -1.82 14.39 -1.01 4.44 -2.42 9.59 -3.23 11.46 -2.93 7.12 -11.76 18.53 -21.15 27.42 -11.61 11.01 -18.23 18.07 -28.12 30.04 -5.05 6.11 -6.06 7.78 -7.78 13.08 -1.46 4.44 -2.07 10.91 -1.16 11.81 0.61 0.66 2.42 0.35 3.99 -0.61z m-121.93 -8.99 c3.28 -6.36 6.31 -11.01 9.14 -14.09 l1.92 -2.07 -4.54 -0.30 c-2.47 -0.20 -5.55 -0.56 -6.87 -0.86 -2.63 -0.61 -3.08 -0.30 -4.24 2.98 -1.11 3.18 -6.56 14.84 -8.08 17.32 -0.86 1.36 -1.51 2.57 -1.51 2.68 0 0.15 2.52 0.20 5.60 0.15 l5.65 -0.15 2.93 -5.65z m-29.64 2.12 c4.19 -2.12 5.86 -4.34 9.29 -12.52 3.53 -8.48 3.69 -8.94 5.35 -14.54 1.62 -5.50 3.64 -10.05 4.44 -10.05 0.30 0 2.63 1.06 5.05 2.32 5.50 2.83 12.12 4.54 19.14 5 6.77 0.45 8.48 -0.25 8.53 -3.38 0 -2.83 -8.08 -6.97 -19.54 -9.95 -10.60 -2.78 -13.28 -4.34 -13.28 -7.62 0 -2.88 1.77 -4.44 10.91 -9.85 12.47 -7.42 19.44 -14.64 17.87 -18.68 -0.25 -0.71 -0.71 -1.26 -1.01 -1.26 -0.86 0 -3.18 1.31 -6.31 3.48 -3.18 2.22 -7.07 3.33 -9.04 2.57 -3.13 -1.16 -3.08 -4.75 0.25 -16.16 3.99 -13.88 7.98 -30.44 8.73 -36.55 0.40 -3.08 0.91 -9.24 1.11 -13.68 0.56 -12.72 -0.66 -17.27 -5.10 -19.79 -3.13 -1.77 -10.05 -3.18 -15.45 -3.18 -15.30 0 -32.36 10.80 -38.57 24.39 -2.22 4.80 -5.76 21.21 -5.05 23.28 0.15 0.30 0.56 4.54 1.01 9.39 0.96 10.30 2.68 19.49 4.75 25.04 0.81 2.22 3.18 7.98 5.30 12.93 2.47 5.81 3.94 9.90 4.14 11.71 0.30 2.63 0.20 3.18 -1.51 6.61 -1.36 2.73 -3.23 5.25 -6.71 8.94 -7.72 8.28 -9.69 11.76 -11.06 19.59 -1.31 7.57 -0.20 14.09 2.93 17.22 1.77 1.72 6.46 4.24 10.50 5.60 4.24 1.41 9.54 1.06 13.33 -0.86z m358.77 -1.01 c0.35 -0.40 0.81 -3.08 1.01 -5.91 0.25 -2.88 0.96 -9.04 1.57 -13.78 2.93 -22.92 -1.62 -36.60 -16.31 -48.82 -2.93 -2.47 -6.41 -4.80 -9.39 -6.26 -2.63 -1.26 -4.80 -2.22 -4.85 -2.12 -0.10 0.05 -0.40 0.61 -0.71 1.21 -0.66 1.21 -0.20 2.12 3.89 7.47 3.33 4.34 7.98 13.99 10.30 21.26 5.35 16.66 6.26 20.35 6.92 28.02 0.86 9.95 1.51 15.20 2.07 16.36 0.71 1.41 3.03 3.33 4.04 3.33 0.45 0 1.11 -0.35 1.46 -0.76z m-231.49 -3.48 c1.06 -1.06 1.16 -1.46 0.76 -2.52 -1.36 -3.69 -8.23 -12.82 -18.13 -24.28 -14.14 -16.31 -24.79 -29.99 -28.58 -36.60 -6.41 -11.31 -8.38 -16.86 -10.65 -30.29 -1.11 -6.61 -1.31 -8.84 -1.06 -14.14 0.25 -6.87 0.96 -9.59 3.99 -15.30 2.42 -4.59 9.24 -11.26 13.88 -13.58 5.15 -2.57 8.18 -3.08 16.56 -2.83 6.97 0.20 7.17 0.25 14.64 2.83 5.40 1.87 8.53 3.28 10.96 4.95 2.73 1.87 3.58 2.17 4.29 1.77 0.71 -0.40 0.76 -0.56 0.15 -0.56 -0.45 -0.05 -0.30 -0.25 0.40 -0.50 1.82 -0.76 1.31 -2.17 -1.92 -5.91 -3.79 -4.34 -11.31 -8.28 -20.70 -10.85 -3.69 -0.96 -5.45 -1.16 -12.62 -1.11 -7.98 0 -8.53 0.05 -13.13 1.62 -9.04 2.98 -17.62 9.39 -22.06 16.46 -1.87 2.88 -4.49 10.10 -5.45 14.89 -1.21 5.91 -0.86 21.61 0.71 29.84 1.36 7.07 4.14 15.60 7.62 23.22 3.48 7.67 5.45 10.75 12.32 19.54 5.71 7.32 12.42 14.24 34.63 35.70 9.90 9.54 10.91 10.10 13.38 7.67z m14.19 -8.23 c3.43 -6.26 10 -15.30 15.85 -21.81 2.22 -2.52 8.58 -8.63 14.04 -13.63 14.84 -13.53 20.85 -20.65 26.15 -31.20 3.53 -6.97 4.80 -14.64 3.79 -23.07 -1.06 -9.09 -4.29 -15.80 -10.60 -22.01 -5.65 -5.60 -10.30 -7.57 -17.97 -7.57 -8.58 0 -18.07 4.75 -23.07 11.51 -3.94 5.35 -5.91 7.17 -7.72 7.17 -1.46 0 -1.97 -0.45 -4.95 -4.49 -3.64 -4.95 -7.88 -8.38 -14.24 -11.51 -1.92 -0.96 -4.29 -2.27 -5.20 -2.93 -2.27 -1.62 -7.12 -3.18 -11.86 -3.79 -7.57 -0.96 -14.79 1.06 -18.02 4.95 -2.27 2.78 -7.52 13.53 -8.18 16.86 -0.66 3.18 -0.40 4.85 3.58 22.37 2.47 10.80 2.63 11.21 5.60 15.15 1.31 1.67 3.48 4.75 4.90 6.82 1.41 2.07 5.91 7.98 9.95 13.13 4.09 5.15 9.24 11.97 11.51 15.15 2.27 3.18 5.86 8.18 7.98 11.11 5.45 7.42 9.54 13.63 12.32 18.83 1.31 2.42 2.57 4.39 2.83 4.39 0.20 0 1.72 -2.42 3.33 -5.40z m-179.03 -12.87 c1.67 -6.46 2.42 -7.93 8.23 -16.31 5.20 -7.47 7.17 -11.56 7.07 -14.89 0 -2.27 -1.87 -8.63 -3.74 -12.98 l-0.96 -2.32 -1.77 1.97 c-2.88 3.18 -8.68 12.17 -11.46 17.77 -2.42 4.85 -2.63 5.50 -2.83 9.59 -0.10 2.42 0.05 6.87 0.30 9.85 0.45 4.54 0.76 5.86 1.82 7.47 1.72 2.57 2.63 2.52 3.33 -0.15z m235.83 -0.15 c3.74 -1.31 3.89 -1.41 1.97 -1.72 -1.62 -0.30 -1.41 -0.40 3.53 -2.22 12.67 -4.70 27.21 -12.87 51.25 -28.88 12.57 -8.38 15.90 -11.01 15.90 -12.52 0 -0.61 -0.66 -3.74 -1.46 -6.92 -0.81 -3.18 -1.77 -8.08 -2.07 -10.85 -1.01 -8.18 -1.26 -9.59 -1.77 -9.54 -0.61 0.10 -2.12 4.80 -4.54 13.83 -0.96 3.74 -2.57 8.53 -3.64 10.60 -4.04 8.38 -15.95 17.52 -35.44 27.11 l-10.91 5.45 -6.41 6.41 c-3.58 3.53 -6.46 6.31 -6.46 6.21 0 -0.10 0.20 -0.76 0.50 -1.46 0.81 -2.22 -0.35 -1.51 -2.27 1.31 -2.68 4.04 -2.37 4.64 1.82 3.18z m-130.56 -20.50 c-3.48 -4.49 -4.95 -6.82 -5.55 -8.84 -0.66 -2.32 -3.43 -7.72 -4.90 -9.59 -0.30 -0.40 -1.67 0.61 -4.34 3.28 -2.12 2.12 -5.65 5.05 -7.78 6.41 l-3.89 2.57 2.73 0.86 c1.51 0.45 5.45 2.17 8.68 3.84 7.17 3.53 10.20 4.80 15.55 6.36 2.22 0.61 4.09 1.16 4.14 1.16 0.05 0.05 -2.02 -2.68 -4.64 -6.06z m-113.40 -27.72 c7.27 -10.05 11.92 -18.02 12.42 -21.46 0.30 -1.92 -0.91 -17.27 -1.41 -17.72 -0.91 -0.96 -11.86 21.71 -14.94 30.90 -0.96 2.88 -3.03 12.52 -3.84 17.87 l-0.35 2.27 2.52 -3.79 c1.36 -2.07 3.94 -5.71 5.60 -8.08z m274.30 10.20 c0.91 -0.91 -1.67 -0.81 -2.93 0.10 -0.91 0.66 -0.86 0.71 0.71 0.61 0.91 -0.05 1.92 -0.40 2.22 -0.71z m6.77 -5.15 c2.78 -1.97 6.56 -6.21 8.03 -9.09 1.57 -3.08 2.52 -7.02 3.53 -14.29 0.45 -3.28 1.26 -7.17 1.82 -8.68 1.21 -3.23 4.14 -7.47 8.13 -11.86 3.84 -4.14 5.05 -6.26 7.72 -13.28 1.16 -3.08 3.18 -7.98 4.44 -10.85 1.92 -4.24 2.22 -5.25 1.57 -5.50 -1.97 -0.76 -10 7.17 -15.10 14.94 -1.92 2.88 -5.25 7.12 -7.42 9.49 -3.69 3.99 -7.12 9.09 -8.78 13.08 -0.40 0.96 -1.41 4.85 -2.27 8.68 -1.51 6.71 -4.54 16.51 -8.18 26.41 l-1.77 4.90 3.08 -1.26 c1.67 -0.71 4.04 -1.92 5.20 -2.68z m114.56 -18.68 c1.31 -1.46 0.81 -5.35 -1.51 -11.11 -1.01 -2.63 -2.78 -7.72 -3.89 -11.36 -2.27 -7.52 -3.84 -10.50 -6.11 -11.92 -2.22 -1.31 -4.95 -1.26 -6.26 0.20 -0.91 0.96 -1.11 2.22 -1.57 10.45 -0.35 5.15 -0.91 10.70 -1.31 12.37 -0.45 1.67 -0.76 3.74 -0.81 4.59 0 1.46 0.15 1.62 2.32 2.17 1.31 0.35 3.74 1.31 5.45 2.17 6.92 3.53 11.92 4.39 13.68 2.42z m-302.02 -5.25 c-0.35 -1.67 -0.66 -3.94 -0.66 -4.95 0 -2.83 -0.76 -2.32 -1.46 0.91 -0.35 1.62 -1.06 4.04 -1.57 5.50 l-0.91 2.57 2.63 -0.45 2.63 -0.50 -0.66 -3.08z m189.84 -31.40 c1.36 -2.07 3.48 -4.54 4.80 -5.60 4.90 -3.84 5.65 -4.80 5.65 -6.71 0 -2.78 -1.92 -6.11 -4.29 -7.42 -2.78 -1.57 -7.17 -1.57 -10.60 0.05 -2.37 1.06 -5.81 4.29 -5.81 5.40 0 0.25 0.76 2.02 1.72 3.89 1.72 3.38 3.94 10.15 4.59 13.99 0.30 1.82 0.45 1.92 0.96 1.06 0.30 -0.56 1.67 -2.63 2.98 -4.64z m-178.88 -22.06 c0 -0.20 -0.71 -1.57 -1.51 -3.03 -1.51 -2.57 -1.57 -2.57 -1.31 -0.86 0.15 0.96 0.40 2.88 0.56 4.29 l0.35 2.47 0.96 -1.21 c0.50 -0.71 0.96 -1.46 0.96 -1.67z m168.08 -8.33 c2.47 -1.16 3.58 -1.36 9.14 -1.51 7.22 -0.20 8.58 0.15 12.37 3.43 3.74 3.23 5.86 2.88 12.57 -2.22 5.25 -3.99 12.77 -7.37 16.31 -7.37 0.56 0 1.36 -0.30 1.87 -0.66 0.86 -0.66 0.86 -0.81 -0.66 -2.47 -1.97 -2.27 -5.71 -4.70 -8.84 -5.76 -2.22 -0.76 -2.63 -0.76 -5.60 0.05 -1.77 0.45 -4.49 1.72 -6.11 2.83 -3.74 2.42 -5.35 2.47 -10.30 0.35 -3.48 -1.57 -4.19 -1.67 -9.09 -1.62 -4.70 0 -5.86 0.20 -9.85 1.67 -6.46 2.37 -11.76 5.25 -15.05 8.18 l-2.88 2.57 2.93 1.92 c1.57 1.06 3.64 2.73 4.59 3.74 l1.72 1.77 2.02 -1.77 c1.11 -1.01 3.28 -2.42 4.85 -3.13z m-93.96 0.81 c0.35 -0.35 0.61 -1.26 0.61 -2.02 0 -1.11 -1.21 -2.73 -5.40 -7.32 -9.64 -10.45 -11.92 -12.57 -16 -14.59 -3.79 -1.82 -3.84 -1.87 -8.73 -1.62 -5.10 0.25 -7.27 0.96 -9.64 3.13 -2.57 2.27 -3.33 5.60 -1.92 8.28 1.21 2.37 2.42 3.03 6.61 3.64 9.74 1.41 19.49 4.39 28.68 8.89 5.10 2.47 5 2.42 5.81 1.62z m24.89 -4.24 c1.06 -0.66 3.58 -1.87 5.76 -2.78 3.79 -1.62 3.89 -1.67 5.55 -5 0.91 -1.82 3.08 -5.45 4.80 -8.03 3.43 -5.15 3.53 -6.16 0.30 -5.10 -4.70 1.51 -12.12 8.73 -16.91 16.41 -1.72 2.78 -3.48 5.60 -3.94 6.26 l-0.86 1.21 1.72 -0.91 c0.96 -0.50 2.57 -1.41 3.58 -2.07z m-79.32 -2.22 c0.96 -0.35 1.82 -0.71 1.87 -0.76 0.10 -0.05 -0.35 -1.31 -0.91 -2.83 -1.51 -3.94 -1.21 -10.65 0.66 -14.69 2.57 -5.55 8.63 -10.10 15.65 -11.76 1.92 -0.45 5.71 -0.76 9.54 -0.76 7.47 0 11.26 0.91 15.45 3.79 2.52 1.72 4.19 2.22 4.19 1.36 0 -0.86 6.06 -9.59 8.84 -12.67 2.63 -2.93 2.83 -3.33 2.02 -3.89 -2.52 -1.82 -19.79 -1.97 -30.24 -0.25 -20.60 3.38 -30.34 8.89 -35.80 20.30 -4.29 8.89 -4.54 15.35 -0.86 23.93 l0.96 2.22 3.43 -1.67 c1.87 -0.91 4.24 -1.92 5.20 -2.32z m66.34 -0.10 c0.45 -0.61 1.46 -3.18 2.32 -5.76 2.02 -6.06 4.49 -10 9.09 -14.69 9.04 -9.09 20.90 -14.44 36.55 -16.51 7.32 -1.01 8.94 -1.82 8.08 -4.09 -0.86 -2.17 -8.33 -3.69 -20.40 -4.14 -6.61 -0.20 -8.58 -0.10 -12.62 0.76 -12.37 2.57 -22.27 9.34 -29.28 20.14 -5.81 8.84 -6.06 13.83 -1.26 21 1.57 2.32 2.27 2.83 4.14 2.98 0.35 0.05 0.71 0.35 0.86 0.76 0.40 1.01 1.67 0.81 2.52 -0.45z m55.23 -6.46 c8.73 -9.49 22.87 -15.60 38.07 -16.46 6.21 -0.30 7.62 -0.56 7.22 -1.21 -0.56 -0.86 -3.89 -2.37 -10.15 -4.59 -5.50 -1.97 -6.41 -2.17 -11.06 -2.17 -5.60 0 -8.68 0.76 -14.74 3.48 -7.37 3.38 -13.43 7.98 -18.53 14.09 -2.73 3.28 -6.36 8.43 -6.36 9.14 0 0.15 1.77 0.25 3.94 0.30 2.12 0.05 4.44 0.25 5.15 0.45 2.52 0.81 3.13 0.50 6.46 -3.03z m-146.87 -13.88 c0.40 -1.57 0.35 -2.17 -0.15 -2.68 -0.71 -0.71 -3.48 0.45 -11.31 4.80 l-3.18 1.77 2.47 1.46 c2.78 1.57 6.92 5.50 9.39 8.99 l1.57 2.17 0.35 -7.22 c0.15 -3.99 0.56 -8.18 0.86 -9.29z"/>
  <path d="M356.30 314.79 c-14.89 -2.42 -29.79 -7.78 -33.57 -12.12 -2.37 -2.63 -2.07 -5.71 0.96 -10.15 2.37 -3.48 14.14 -12.22 32.01 -23.73 26.51 -17.07 26.51 -17.12 30.14 -18.38 5.35 -1.87 9.44 -1.11 11.41 2.12 1.72 2.93 6.66 15.75 7.98 20.90 1.16 4.49 1.26 5.65 1.01 11.31 -0.71 16.71 -7.17 25.09 -22.42 29.13 -4.19 1.11 -6.21 1.31 -13.99 1.46 -6.26 0.10 -10.50 -0.05 -13.53 -0.56z m16.31 -11.86 c6.56 -1.06 14.19 -4.19 16.76 -6.92 3.58 -3.79 5.50 -11.56 4.59 -18.68 -0.61 -4.54 -3.33 -13.99 -4.24 -14.54 -0.56 -0.35 -2.57 0.71 -9.74 5.25 -2.73 1.77 -7.27 4.49 -10.10 6.11 -2.78 1.57 -8.94 5.50 -13.68 8.68 -4.70 3.18 -11.11 7.07 -14.14 8.58 -8.33 4.24 -8.99 5.45 -4.19 7.88 5.60 2.83 26.20 4.95 34.74 3.64z"/>
  <path d="M392.80 218.26 c-3.79 -3.84 -5.05 -10.05 -5.05 -25.14 0 -9.54 0.66 -13.73 2.78 -17.97 2.68 -5.35 5.35 -7.17 10.35 -7.22 5.55 -0.05 9.85 3.18 12.17 9.09 1.67 4.34 1.62 13.58 -0.20 20.40 -1.67 6.46 -3.94 12.12 -6.56 16.41 -2.52 4.19 -5.65 6.26 -9.39 6.31 -1.87 0 -2.47 -0.25 -4.09 -1.87z m7.83 -13.93 c2.52 -3.89 4.19 -22.97 2.12 -24.28 -1.41 -0.86 -2.17 0.66 -2.83 5.40 -1.87 14.34 -2.22 18.53 -1.57 19.29 0.86 1.06 1.36 0.96 2.27 -0.40z"/>
  <path d="M85.83 295.26 c-3.38 -1.72 -4.14 -3.58 -3.89 -9.24 0.15 -3.13 0.61 -5.60 1.46 -7.93 4.34 -11.71 14.19 -21.81 19.89 -20.40 1.57 0.40 3.18 3.69 3.23 6.51 0 4.04 -2.12 12.32 -5.15 19.94 -3.43 8.78 -4.90 10.70 -8.63 11.66 -3.28 0.81 -4.39 0.71 -6.92 -0.56z"/>
  <path d="M107.24 239.87 c-3.89 -0.96 -6.56 -3.99 -10 -11.21 -7.07 -15 -10.05 -29.64 -8.18 -40.34 2.22 -12.52 7.67 -23.22 16.76 -32.77 5.30 -5.60 8.89 -7.62 13.43 -7.62 5.20 0 10.85 3.89 13.58 9.44 1.16 2.32 1.21 2.93 1.21 12.27 l0 9.85 -2.07 4.54 c-2.37 5.10 -3.69 9.54 -5.25 17.67 -0.61 3.08 -1.62 7.93 -2.27 10.85 -0.71 2.93 -1.77 7.83 -2.47 10.85 -2.68 12.07 -5.10 15.55 -11.66 16.56 -0.81 0.15 -2.22 0.10 -3.08 -0.10z m4.49 -21.51 c0.81 -2.22 2.68 -9.04 4.19 -15.15 1.51 -6.11 3.89 -15.25 5.25 -20.25 3.13 -11.46 3.23 -14.79 0.35 -19.14 -1.82 -2.83 -2.68 -3.08 -5.05 -1.41 -5.05 3.48 -10.75 12.87 -14.39 23.63 -3.58 10.55 -2.32 20.70 4.24 34.58 l2.27 4.80 0.81 -1.51 c0.45 -0.81 1.46 -3.33 2.32 -5.55z"/>
 </g>
 <g fill="#162030">
  <path d="M370.53 388.20 c-14.29 -1.51 -36.35 -9.90 -53.47 -20.30 -3.43 -2.12 -6.56 -3.38 -8.18 -3.38 -2.17 0 -4.75 -1.92 -11.41 -8.43 -12.32 -12.07 -27.21 -24.69 -36.30 -30.70 -2.02 -1.31 -3.69 -2.68 -3.69 -3.03 0 -1.01 3.89 -6.71 5.05 -7.32 0.56 -0.30 1.31 -0.40 1.67 -0.20 0.56 0.35 6.41 4.95 16.26 12.82 3.99 3.18 12.02 8.84 16.91 11.97 8.89 5.60 32.26 17.92 44.73 23.53 2.83 1.26 7.22 3.58 9.85 5.20 2.63 1.57 5.50 3.18 6.36 3.58 1.62 0.66 14.24 2.27 22.87 2.98 4.54 0.35 12.17 -0.86 17.82 -2.78 1.46 -0.50 3.53 -1.06 4.64 -1.26 2.93 -0.56 5.35 -1.97 7.98 -4.64 2.22 -2.27 3.43 -3.89 7.57 -10.40 2.07 -3.18 3.89 -4.75 8.23 -6.97 3.48 -1.77 4.04 -1.82 4.70 -0.61 0.61 1.11 -0.40 7.32 -2.02 12.07 -5.05 15.45 -15.55 24.54 -31.76 27.62 -4.54 0.86 -20.70 1.01 -27.82 0.25z"/>
  <path d="M169.74 364.27 c-11.01 -2.42 -20.60 -11.21 -24.79 -22.82 -6.61 -18.18 -1.72 -39.43 11.97 -52.20 4.29 -4.04 10.20 -8.03 16 -10.96 4.29 -2.12 10.20 -4.14 12.12 -4.14 0.81 0 3.28 1.92 7.78 6.16 3.64 3.43 6.61 6.46 6.61 6.77 0 0.30 -2.02 0.81 -4.80 1.11 -15.40 1.92 -28.48 10.35 -34.08 22.01 -5.15 10.85 -3.74 23.53 4.04 35.19 1.16 1.77 3.23 4.95 4.54 7.07 1.26 2.07 3.43 5.10 4.70 6.66 2.42 2.98 2.83 4.24 1.77 5.30 -0.76 0.76 -1.77 0.71 -5.86 -0.15z"/>
  <path d="M196.55 362.46 c-6.66 -1.31 -14.14 -7.17 -16.31 -12.82 -1.41 -3.64 -1.87 -10.05 -1.06 -13.88 1.62 -7.62 7.72 -15.05 15.25 -18.68 9.09 -4.34 16.56 -4.59 30.39 -0.91 5.81 1.51 5.91 1.57 5.91 2.98 0 0.86 -0.25 1.46 -0.66 1.46 -0.35 0 -0.91 0.45 -1.26 1.01 -0.40 0.66 -1.16 1.01 -2.27 1.01 -2.17 -0.05 -5.50 -0.81 -5.86 -1.41 -0.30 -0.50 -1.87 -0.76 -3.94 -0.66 -1.01 0.05 -1.16 0.35 -1.16 2.02 0 1.11 -0.25 2.12 -0.61 2.22 -0.40 0.15 -0.25 0.30 0.25 0.30 1.57 0.10 2.37 1.36 2.37 3.79 0 1.26 -0.10 2.32 -0.20 2.32 -0.10 0 -1.97 -0.35 -4.14 -0.81 -7.62 -1.57 -12.77 -0.15 -16.56 4.49 -1.41 1.77 -1.57 2.32 -1.57 5.30 0 4.14 0.91 5.60 4.70 7.47 4.80 2.42 9.29 0.96 10.70 -3.48 l0.76 -2.37 2.88 0 c5.76 0 19.74 5.76 20.40 8.38 0.50 1.97 -0.10 2.63 -3.18 3.48 -4.34 1.21 -7.93 2.68 -13.28 5.35 -2.63 1.36 -6.16 2.78 -7.83 3.23 -3.18 0.81 -10.15 0.91 -13.73 0.20z"/>
  <path d="M358.37 348.32 c-1.26 -0.71 -1.11 -1.62 0.50 -2.83 0.76 -0.61 2.73 -2.12 4.39 -3.38 2.37 -1.82 4.29 -2.73 8.84 -4.14 3.18 -1.01 7.37 -2.63 9.29 -3.58 1.87 -0.96 5.50 -2.17 8.03 -2.73 10.75 -2.37 15.15 -4.64 22.37 -11.66 3.03 -2.93 3.84 -3.48 5.05 -3.33 l1.46 0.15 0 6.06 c-0.05 11.01 -2.37 16.06 -8.28 17.72 -1.87 0.56 -3.33 1.36 -4.39 2.47 -1.82 1.92 -2.17 2.02 -13.33 2.78 -4.04 0.25 -12.07 1.06 -17.92 1.77 -11.46 1.36 -14.64 1.51 -16 0.71z"/>
  <path d="M427.03 335.49 c-0.10 -0.15 0.10 -2.02 0.45 -4.14 0.50 -2.83 0.66 -7.02 0.50 -14.54 -0.20 -10 -0.30 -10.96 -1.77 -16.51 -1.16 -4.29 -1.82 -8.28 -2.37 -14.64 -1.31 -15 -3.13 -23.68 -7.12 -34.38 -2.52 -6.77 -2.68 -8.23 -1.16 -11.31 2.02 -4.19 5.20 -5.35 7.62 -2.78 3.89 4.09 12.07 25.45 16.26 42.26 2.22 9.09 4.75 30.85 4.14 35.85 -0.81 6.26 -3.28 10 -10.65 16.16 -4.24 3.53 -5.50 4.39 -5.91 4.04z"/>
  <path d="M168.58 326.10 c-0.86 -0.86 -0.96 -1.41 -0.71 -3.38 1.01 -7.72 2.83 -11.76 7.17 -16.11 3.74 -3.69 10.60 -7.37 16.06 -8.48 4.04 -0.86 10 -0.96 12.17 -0.30 0.81 0.25 2.32 0.61 3.38 0.81 1.72 0.25 1.87 0.40 1.87 2.02 0 1.21 0.25 1.77 0.76 1.77 1.16 0 0.35 1.36 -1.16 1.92 -0.76 0.30 -3.38 0.86 -5.91 1.36 -11.51 2.12 -22.42 8.99 -28.48 17.87 -1.72 2.52 -2.88 3.58 -3.89 3.58 -0.10 0 -0.66 -0.45 -1.26 -1.06z"/>
  <path d="M118.80 308.13 c-3.69 -0.10 -6.71 -0.30 -6.71 -0.45 0 -0.15 0.81 -1.26 1.82 -2.37 1.82 -2.12 7.62 -13.58 9.85 -19.39 0.66 -1.77 1.57 -3.64 2.02 -4.24 0.81 -1.06 0.81 -1.06 4.54 -0.20 2.07 0.45 6.06 0.96 8.94 1.11 3.53 0.20 5.15 0.50 5.15 0.91 0 0.35 -1.26 2.02 -2.78 3.74 -3.69 4.14 -6.36 8.18 -9.64 14.59 -2.98 5.71 -3.79 6.71 -5.45 6.56 -0.61 -0.05 -4.09 -0.20 -7.72 -0.25z"/>
  <path d="M89.41 289.35 c-1.67 -1.06 0.76 -9.85 4.49 -16.21 1.06 -1.82 1.62 -2.32 2.93 -2.42 0.91 -0.10 1.62 -0.10 1.62 0 -0.05 1.31 -5.76 16.26 -6.87 17.97 -0.81 1.21 -1.11 1.31 -2.17 0.66z"/>
  <path d="M60.48 280.97 c-2.47 -1.36 -3.48 -3.79 -4.04 -9.74 -0.25 -2.98 -0.40 -8.03 -0.30 -11.26 l0.15 -5.86 2.63 -5.25 c4.85 -9.74 12.47 -20.14 14.74 -20.14 1.41 0 2.22 1.41 4.39 7.83 1.51 4.39 1.92 6.31 1.97 9.34 0 5 -1.26 7.93 -7.17 16.41 -5.40 7.78 -6.36 9.59 -7.67 14.39 -1.46 5.20 -2.02 5.71 -4.70 4.29z"/>
  <path d="M45.59 239.72 c0.30 -5.55 2.27 -15.75 3.94 -20.80 0.56 -1.67 2.42 -6.26 4.09 -10.15 7.47 -17.27 12.42 -25.04 13.73 -21.61 0.66 1.67 1.92 17.07 1.67 20.20 -0.35 4.64 -3.79 10.75 -13.73 24.64 -2.42 3.33 -5.25 7.57 -6.36 9.49 -1.16 1.92 -2.37 3.38 -2.83 3.38 -0.71 0 -0.76 -0.66 -0.50 -5.15z"/>
  <path d="M317.17 152.42 c-1.77 -1.62 -4.39 -3.69 -5.91 -4.54 -1.51 -0.86 -2.78 -1.77 -2.78 -1.97 0 -1.06 7.47 -7.17 11.01 -8.99 12.07 -6.26 21.56 -7.37 30.70 -3.58 l3.74 1.57 2.83 -1.92 c3.84 -2.52 8.28 -3.89 11.86 -3.64 5.20 0.35 12.37 5 13.63 8.84 0.56 1.72 0.50 1.92 -0.56 2.78 -0.61 0.50 -1.57 0.91 -2.12 0.91 -3.74 0 -11.41 3.58 -17.27 7.98 -6.36 4.85 -10.45 5.25 -14.74 1.57 -3.53 -3.08 -5.25 -3.58 -10.80 -3.38 -5.76 0.25 -9.24 1.62 -13.03 5.15 -1.36 1.26 -2.68 2.32 -2.93 2.32 -0.25 -0.05 -1.87 -1.41 -3.64 -3.08z"/>
  <path d="M250.93 149.55 c0 -2.63 7.22 -14.39 11.81 -19.24 5.96 -6.26 12.47 -10 15.25 -8.68 2.22 0.96 1.67 3.48 -1.87 8.78 -1.67 2.52 -3.84 6.11 -4.75 7.93 -1.67 3.33 -1.72 3.38 -5.65 5 -2.17 0.91 -4.14 1.87 -4.44 2.07 -0.71 0.56 -9.79 5.55 -10.10 5.55 -0.15 0 -0.25 -0.66 -0.25 -1.41z"/>
  <path d="M152.47 142.63 c-1.41 -4.29 -7.83 -11.31 -13.18 -14.44 -1.97 -1.11 -3.48 -2.27 -3.38 -2.57 0.10 -0.30 3.58 -2.32 7.72 -4.49 6.26 -3.28 7.93 -3.99 9.54 -3.89 2.83 0.20 3.18 1.06 2.32 5.55 -1.06 5.81 -1.21 13.23 -0.30 17.22 1.06 4.44 1.06 4.39 -0.66 4.39 -1.26 0 -1.57 -0.30 -2.07 -1.77z"/>
  <path d="M166.41 140.46 c-0.10 -0.20 -0.35 -1.21 -0.50 -2.27 -0.96 -5.91 -1.01 -5.40 0.56 -5.40 3.48 0 3.69 0.25 3.69 4.34 l0 3.74 -1.72 0 c-0.96 0 -1.87 -0.15 -2.02 -0.40z"/>
  <path d="M172.01 115.26 c-0.71 -0.66 -0.30 -1.57 1.72 -3.89 2.57 -2.93 3.79 -3.64 4.80 -2.78 2.22 1.82 -1.06 7.02 -4.49 7.02 -0.96 0 -1.87 -0.15 -2.02 -0.35z"/>
  <path d="M225.78 104.16 c0.15 -2.12 0.30 -2.42 1.36 -2.57 2.42 -0.35 3.58 0.30 3.58 2.02 0 1.87 -1.16 2.88 -3.43 2.93 l-1.67 0 0.15 -2.37z"/>
  <path d="M235.98 102.24 c-0.50 -0.40 -1.36 -0.76 -1.87 -0.76 -0.76 0 -0.91 -0.35 -0.76 -1.87 0.15 -1.72 0.30 -1.92 1.41 -1.77 3.79 0.40 4.95 1.51 4.04 3.84 -0.56 1.46 -1.36 1.67 -2.83 0.56z"/>
  <path d="M199.58 102.19 c-1.01 -0.45 -0.81 -2.63 0.25 -2.93 1.26 -0.35 10.40 -1.72 14.39 -2.12 l3.38 -0.30 0 1.51 c0 1.51 -0.71 2.12 -2.57 2.12 -0.50 0 -0.96 0.20 -0.96 0.45 0 0.20 -2.22 0.56 -4.90 0.76 -2.73 0.15 -5.86 0.40 -6.97 0.56 -1.11 0.10 -2.32 0.10 -2.63 -0.05z"/>
 </g>
 <g fill="#162030">
  <path d="M288.89 380.63 c-1.67 -1.67 -3.33 -3.08 -3.74 -3.18 -0.40 -0.05 -4.04 -3.08 -8.03 -6.71 -19.34 -17.62 -32.36 -27.57 -43.17 -33.02 -5.96 -3.03 -15.10 -6.51 -17.07 -6.51 -1.06 0 -2.02 -1.36 -1.21 -1.67 0.45 -0.20 0.45 -0.30 -0.10 -0.30 -0.66 -0.05 -0.66 -0.15 -0.05 -0.50 0.61 -0.40 0.61 -0.61 -0.10 -1.26 -0.40 -0.45 -1.16 -0.66 -1.57 -0.50 -0.56 0.20 -0.81 0.05 -0.81 -0.56 0 -0.61 -0.25 -0.76 -1.01 -0.50 -0.76 0.25 -1.01 0.10 -1.01 -0.56 0 -0.50 0.15 -0.76 0.30 -0.56 0.15 0.15 0.91 -0.30 1.62 -1.01 1.06 -1.06 1.16 -1.41 0.66 -2.27 -0.30 -0.50 -0.45 -1.16 -0.30 -1.41 0.20 -0.30 -0.05 -0.50 -0.45 -0.50 -0.45 0 -0.81 -0.20 -0.81 -0.45 0 -0.30 0.45 -0.40 1.01 -0.30 0.56 0.10 1.01 -0.05 1.01 -0.30 0 -0.30 0.30 -0.35 0.86 -0.05 0.61 0.35 1.06 0.25 1.62 -0.25 0.50 -0.56 0.81 -0.61 0.96 -0.20 0.10 0.30 0.40 0.40 0.71 0.25 0.25 -0.15 0.10 -0.71 -0.40 -1.26 -0.45 -0.50 -0.61 -0.96 -0.30 -0.96 0.30 0 0.66 0.20 0.86 0.50 0.15 0.25 0.61 0.35 1.01 0.15 0.40 -0.15 0.76 -0.05 0.76 0.25 0 0.30 0.50 0.40 1.16 0.30 0.61 -0.10 0.81 -0.05 0.35 0.10 -0.40 0.20 -1.06 0.66 -1.41 1.06 -0.56 0.56 -0.40 0.66 0.91 0.66 0.91 0 1.46 0.20 1.26 0.50 -0.30 0.50 -0.25 0.56 1.57 0.76 0.61 0.05 1.36 0.25 1.67 0.45 0.35 0.20 0.91 0.10 1.31 -0.20 0.81 -0.66 1.06 -1.77 0.30 -1.31 -0.25 0.15 -0.56 0 -0.71 -0.40 -0.25 -0.56 0 -0.66 1.21 -0.30 1.16 0.35 1.46 0.25 1.46 -0.35 0 -1.11 1.82 -0.56 8.33 2.63 6.82 3.28 8.94 4.64 17.77 11.36 8.73 6.66 12.07 9.49 24.79 21.41 9.49 8.84 14.39 13.88 14.54 15 0.05 0.25 0.10 0.66 0.15 0.91 0 0.25 1.21 1.62 2.57 3.03 1.41 1.41 2.52 2.83 2.52 3.13 0 0.30 0.30 0.45 0.66 0.30 0.40 -0.15 0.71 0 0.76 0.30 0 0.35 0.20 1.16 0.40 1.87 0.35 1.21 0.30 1.21 -0.61 0.40 -0.96 -0.81 -1.01 -0.81 -1.11 0.35 -0.05 0.71 0.15 1.26 0.40 1.26 0.30 0 0.50 0.35 0.50 0.81 0 0.40 0.35 1.11 0.76 1.57 0.45 0.40 0.71 0.91 0.56 1.06 -0.35 0.30 -2.83 -2.42 -2.83 -3.08 0 -0.25 -0.20 -0.25 -0.50 -0.10 -0.25 0.15 -0.50 0.05 -0.50 -0.20 0 -0.30 -0.35 -0.56 -0.81 -0.56 -0.40 0 -0.61 0.25 -0.45 0.50 0.20 0.30 -0.25 0.50 -0.96 0.50 -0.71 0 -1.31 -0.20 -1.31 -0.50 0 -0.25 -0.20 -0.50 -0.50 -0.50 -0.30 0 -0.25 0.56 0.15 1.36 0.45 1.06 0.45 1.36 -0.05 1.57 -0.35 0.10 -0.50 0.40 -0.30 0.66 0.15 0.25 -0.30 0.45 -1.01 0.45 -0.91 0 -2.17 -0.91 -4.24 -3.08z"/>
  <path d="M373.36 367.50 c-2.22 -0.25 -5.71 -0.81 -7.72 -1.21 -4.09 -0.91 -4.80 -1.67 -4.80 -4.90 0 -3.89 2.73 -5.15 13.03 -6.01 9.54 -0.81 23.17 -0.81 25.60 0 2.27 0.76 3.43 2.22 3.43 4.34 0 2.07 -1.36 3.43 -5.20 5.20 -6.36 2.98 -13.48 3.69 -24.34 2.57z"/>
  <path d="M173.43 364.07 c-0.30 -0.56 0.05 -0.76 0.96 -0.61 0.20 0.05 0.76 -0.20 1.16 -0.56 0.66 -0.50 0.76 -0.45 0.61 0.35 -0.25 1.11 -2.17 1.67 -2.73 0.81z"/>
  <path d="M276.88 325.35 c-4.39 -3.48 -8.73 -6.92 -9.64 -7.62 -0.91 -0.66 -1.87 -1.11 -2.12 -0.96 -0.25 0.20 -0.61 0.10 -0.81 -0.20 -0.15 -0.25 -0.86 -0.50 -1.51 -0.50 -0.86 0 -1.62 0.66 -2.78 2.52 -1.77 2.78 -2.63 3.43 -1.16 0.96 1.16 -2.02 3.89 -5 4.59 -5 0.50 0 3.38 2.22 17.27 13.33 4.59 3.64 4.80 3.84 4.49 3.84 -0.15 0 -3.89 -2.88 -8.33 -6.36z"/>
  <path d="M201.95 305 c0 -0.56 2.02 -1.11 2.63 -0.76 0.25 0.15 0.30 0.50 0.15 0.76 -0.40 0.61 -2.78 0.61 -2.78 0z"/>
  <path d="M357.71 304.60 c-0.81 -0.10 -4.64 -0.50 -8.48 -0.96 -7.52 -0.81 -12.57 -2.12 -14.69 -3.79 -1.06 -0.81 -1.31 -1.46 -1.31 -3.18 0 -2.78 0.66 -3.33 8.28 -7.32 3.33 -1.72 9.49 -5.50 13.78 -8.43 4.29 -2.88 10.15 -6.61 13.03 -8.23 2.83 -1.67 7.42 -4.39 10.15 -6.16 6.36 -4.04 10.15 -6.01 11.61 -6.01 0.91 0 1.31 0.50 2.22 2.83 4.34 11.71 4.70 23.33 0.81 30.90 -0.66 1.31 -1.87 2.98 -2.68 3.69 -2.78 2.63 -10.05 5.50 -16.31 6.51 -3.08 0.45 -13.08 0.56 -16.41 0.15z"/>
  <path d="M456.67 304.09 c-1.62 -0.45 -3.28 -1.72 -4.04 -3.18 -0.76 -1.46 -1.36 -6.01 -2.27 -16.66 -0.66 -7.67 -1.57 -11.36 -6.92 -28.02 -2.32 -7.27 -6.97 -16.91 -10.30 -21.26 -4.70 -6.21 -5.25 -7.62 -3.89 -10.55 1.01 -2.22 2.47 -2.12 8.13 0.71 9.54 4.80 18.43 13.48 22.57 22.01 4.44 9.04 5.55 20.75 3.58 36.35 -0.61 4.75 -1.31 10.96 -1.57 13.88 -0.35 4.54 -0.56 5.40 -1.51 6.16 -1.11 0.91 -1.92 1.01 -3.79 0.56z"/>
  <path d="M207 302.22 c0 -1.92 -0.91 -2.42 -2.88 -1.77 -0.76 0.30 -1.16 0.15 -1.36 -0.35 -0.15 -0.40 -0.91 -0.71 -1.67 -0.71 -1.11 0 -1.26 -0.10 -0.66 -0.50 0.56 -0.35 0 -0.50 -1.87 -0.50 -1.41 0 -2.78 -0.25 -2.98 -0.56 -0.50 -0.86 9.74 -0.35 11.66 0.61 2.88 1.36 3.58 5.50 0.96 5.50 -1.06 0 -1.21 -0.25 -1.21 -1.72z"/>
  <path d="M89.36 284 c0 -0.91 2.07 -6.01 4.09 -9.85 2.17 -4.24 4.70 -7.52 5.30 -6.97 0.66 0.66 -0.81 5.96 -1.62 5.96 -0.40 0 -0.61 -0.20 -0.45 -0.50 0.15 -0.25 -0.15 -0.50 -0.76 -0.50 -1.06 0 -2.27 2.17 -5.45 9.85 -0.61 1.41 -1.06 2.32 -1.11 2.02z"/>
  <path d="M59.12 280.01 c-0.30 -0.35 -0.40 -0.76 -0.25 -0.91 0.35 -0.40 2.22 0.10 2.22 0.61 0 0.76 -1.41 0.96 -1.97 0.30z"/>
  <path d="M62.76 280.36 c-0.66 -0.10 -1.16 -0.56 -1.16 -0.96 0 -0.40 0.25 -0.61 0.50 -0.45 0.30 0.15 0.50 0.05 0.50 -0.25 0 -0.30 0.20 -0.45 0.45 -0.30 0.25 0.20 0.56 0 0.71 -0.30 0.15 -0.45 0.35 -0.30 0.66 0.30 0.25 0.66 0.15 1.06 -0.20 1.21 -0.35 0.10 -0.50 0.40 -0.30 0.66 0.15 0.25 0.20 0.40 0.10 0.40 -0.10 -0.05 -0.66 -0.20 -1.26 -0.30z"/>
  <path d="M301.01 275.31 c-0.91 -0.10 -1.51 -0.45 -1.36 -0.71 0.20 -0.25 0.05 -0.45 -0.25 -0.45 -0.35 0 -0.45 -0.40 -0.20 -1.11 0.20 -0.66 0.35 -1.51 0.30 -2.02 0 -0.45 2.37 -3.18 5.35 -6.06 l5.40 -5.20 10.91 -5.40 c17.22 -8.53 29.23 -17.22 33.83 -24.34 2.47 -3.79 3.53 -6.61 6.31 -17.12 2.47 -9.44 3.13 -10.96 4.95 -10.96 1.67 0 2.17 0.86 2.57 4.29 0.81 7.37 1.41 11.06 3.13 18.02 1.06 4.49 1.67 7.93 1.46 8.68 -0.45 1.82 -4.14 4.64 -17.72 13.63 -17.52 11.61 -25.95 16.81 -34.53 21.10 -6.61 3.33 -17.77 8.18 -18.33 7.88 -0.10 0 -0.91 -0.15 -1.82 -0.25z"/>
  <path d="M174.18 265.21 c-0.66 -0.45 -3.38 -1.46 -6.01 -2.22 -6.11 -1.72 -8.78 -2.78 -16.96 -6.82 -3.58 -1.77 -8.23 -3.64 -10.25 -4.14 -4.34 -1.06 -4.44 -0.81 2.42 -5.30 5 -3.28 9.79 -7.47 11.81 -10.40 0.81 -1.16 1.82 -2.07 2.27 -2.07 1.01 0 5.50 7.67 6.87 11.81 0.96 2.88 3.18 6.01 12.02 17.07 2.12 2.63 0.66 4.04 -2.17 2.07z"/>
  <path d="M325.80 239.42 c-0.40 -0.25 -0.25 -1.31 0.71 -3.89 5 -13.83 7.78 -22.52 8.99 -27.77 0.76 -3.33 1.72 -7.32 2.12 -8.84 1.16 -4.44 5.05 -10.80 9.49 -15.60 2.22 -2.42 5.81 -7.02 7.93 -10.20 2.47 -3.69 5.35 -7.22 7.93 -9.69 4.80 -4.59 6.97 -5.81 9.04 -5.10 2.17 0.76 2.02 2.68 -0.71 8.78 -1.26 2.93 -3.33 7.88 -4.49 10.96 -2.68 7.02 -3.89 9.14 -7.72 13.28 -3.99 4.39 -6.92 8.63 -8.13 11.86 -0.56 1.51 -1.36 5.40 -1.82 8.68 -1.01 7.27 -1.97 11.21 -3.53 14.29 -1.46 2.88 -5.25 7.12 -8.03 9.09 -2.27 1.51 -8.58 4.29 -8.13 3.48 0.20 -0.25 -0.15 -0.45 -0.71 -0.45 -1.41 0 -2.63 0.56 -2.27 1.06 0.30 0.56 0.15 0.56 -0.66 0.05z"/>
  <path d="M107.54 227.20 c-1.62 -2.27 -4.80 -9.34 -6.51 -14.49 -3.18 -9.44 -3.38 -19.69 -0.50 -28.07 4.44 -12.98 11.11 -22.92 16.81 -25.04 2.78 -1.11 6.06 1.72 7.32 6.31 1.16 4.24 0.71 8.89 -1.97 18.58 -1.36 5 -3.74 14.14 -5.25 20.25 -2.68 10.80 -4.54 16.71 -6.87 21.61 -0.61 1.31 -1.31 2.37 -1.51 2.37 -0.25 0 -0.91 -0.66 -1.51 -1.51z"/>
  <path d="M141.62 216.09 c-0.10 -0.20 0.56 -2.68 1.46 -5.60 0.96 -2.88 2.37 -8.13 3.13 -11.66 0.81 -3.58 1.72 -6.46 2.02 -6.46 0.35 0 0.66 2.27 0.86 6.46 0.30 5.65 0.86 9.39 2.12 14.39 0.35 1.26 0.25 1.36 -1.06 1.41 -0.81 0 -3.03 0.40 -4.90 0.91 -1.87 0.50 -3.53 0.76 -3.64 0.56z"/>
  <path d="M397.49 206.75 c-1.41 -1.01 -1.51 -3.08 -0.40 -12.27 1.67 -13.83 1.87 -14.84 2.83 -15.80 1.21 -1.21 3.58 -1.21 4.64 -0.05 2.22 2.47 -0.10 25.55 -2.78 27.77 -1.26 1.01 -3.13 1.16 -4.29 0.35z"/>
  <path d="M156.01 162.57 c0 -3.69 -1.06 -11.11 -2.12 -15.15 -0.56 -2.07 -1.16 -4.34 -1.31 -5.05 -0.25 -1.26 -0.25 -1.26 0.81 -0.35 0.66 0.61 1.11 0.76 1.36 0.35 0.50 -0.81 1.11 -0.20 1.46 1.62 0.20 0.91 1.62 4.19 3.13 7.27 l2.83 5.60 -2.63 3.48 c-3.64 4.80 -3.53 4.75 -3.53 2.22z"/>
  <path d="M168.38 146.21 c-4.19 -9.54 -4.04 -17.92 0.61 -27.52 4.29 -8.99 11.31 -14.24 23.38 -17.62 6.82 -1.92 9.39 -2.32 9.85 -1.67 0.20 0.35 -0.15 0.56 -0.86 0.56 -0.86 0 -0.96 0.15 -0.45 0.45 0.35 0.25 1.57 0.20 2.78 -0.05 1.11 -0.30 3.58 -0.56 5.45 -0.61 1.82 0 3.23 -0.20 3.08 -0.40 -0.10 -0.25 0.20 -0.45 0.71 -0.50 0.50 0 1.16 -0.10 1.41 -0.15 0.30 -0.10 0.81 -0.15 1.21 -0.20 0.40 -0.05 0.56 -0.35 0.35 -0.86 -0.30 -0.76 0.45 -0.81 8.63 -0.56 4.95 0.20 10 0.56 11.21 0.81 2.12 0.45 3.64 1.62 3.53 2.78 0 0.30 -0.25 0.05 -0.56 -0.61 -0.61 -1.21 -3.08 -1.57 -3.74 -0.50 -0.20 0.35 -0.15 0.40 0.20 0.20 0.61 -0.35 3.64 1.57 3.64 2.32 0 0.20 -1.26 1.82 -2.83 3.53 -1.57 1.77 -4.19 5.25 -5.81 7.72 -1.62 2.52 -3.18 4.85 -3.48 5.20 -1.01 1.11 -3.23 0.61 -6.31 -1.41 -4.34 -2.93 -8.38 -4.04 -14.34 -4.04 -8.48 0 -15.10 2.37 -19.84 7.12 -3.58 3.58 -5.20 7.32 -5.20 12.07 0 3.28 0.25 4.29 1.57 6.97 1.72 3.43 1.67 3.53 -1.57 4.59 -1.11 0.40 -4.04 1.67 -6.46 2.88 -2.47 1.21 -4.59 2.22 -4.70 2.22 -0.15 0 -0.81 -1.21 -1.46 -2.73z m0.05 -9.29 c0.05 -1.31 0 -2.07 -0.15 -1.72 -0.20 0.50 -0.45 0.40 -0.96 -0.25 -0.66 -0.86 -0.71 -0.81 -0.56 0.61 0.10 1.26 1.11 3.79 1.51 3.79 0.05 0 0.15 -1.06 0.15 -2.42z m6.01 -23.28 c-0.15 -0.25 0.05 -0.56 0.45 -0.66 0.61 -0.15 0.66 -0.30 0.05 -1.06 -0.66 -0.91 -0.71 -0.91 -1.26 0.10 -0.56 1.11 -0.30 2.07 0.56 2.07 0.30 0 0.40 -0.20 0.20 -0.45z m2.27 -2.37 c0 -0.45 0.25 -0.61 0.66 -0.40 0.40 0.30 0.40 0.15 -0.05 -0.45 -0.61 -0.71 -0.81 -0.76 -1.46 -0.10 -0.40 0.40 -0.56 0.96 -0.40 1.26 0.45 0.76 1.26 0.61 1.26 -0.30z m51.90 -7.83 c-0.76 -0.50 -1.41 -0.10 -1.41 0.86 0 0.61 0.20 0.61 1.01 0.10 0.66 -0.40 0.81 -0.76 0.40 -0.96z"/>
  <path d="M295.10 140.96 c-1.16 -0.45 -4.34 -0.86 -7.42 -1.01 -3.03 -0.10 -5.45 -0.35 -5.45 -0.56 0 -0.91 4.85 -8.33 7.67 -11.71 5.30 -6.36 11.26 -10.91 18.73 -14.34 6.36 -2.88 9.04 -3.48 16 -3.53 5.86 0 6.66 0.10 11.36 1.72 9.64 3.28 12.37 4.80 12.37 6.92 0 1.72 -1.11 2.07 -7.42 2.37 -9.19 0.50 -15.85 2.22 -24.34 6.21 -6.21 2.93 -10.30 5.91 -14.79 10.80 -2.02 2.22 -3.89 3.99 -4.19 3.99 -0.25 -0.05 -1.41 -0.40 -2.52 -0.86z"/>
 </g>
 <g fill="#162030">
  <path d="M287.63 209.68 c-0.45 -0.56 -0.91 -2.37 -1.11 -4.70 -0.96 -10.91 -5.50 -17.17 -13.78 -18.83 -3.74 -0.76 -4.75 -1.57 -4.54 -3.53 0.40 -4.14 8.58 -5.40 14.74 -2.27 2.63 1.36 6.66 5.20 8.23 7.88 3.89 6.61 4.29 17.57 0.81 21.41 -1.06 1.16 -3.28 1.16 -4.34 0.05z"/>
  <path d="M234.27 168.63 c0 -0.25 0.30 -0.50 0.66 -0.50 0.45 0 0.45 -0.10 0 -0.40 -0.40 -0.25 -0.15 -0.56 0.66 -0.96 1.11 -0.50 1.21 -0.45 1.21 0.91 0 1.21 -0.20 1.46 -1.26 1.46 -0.71 0 -1.26 -0.20 -1.26 -0.50z"/>
  <path d="M240.93 142.78 c-0.91 -0.91 -0.71 -1.51 0.35 -0.96 0.50 0.30 1.06 0.40 1.16 0.25 0.15 -0.15 0.40 0.10 0.56 0.56 0.40 0.91 -1.16 1.06 -2.07 0.15z"/>
 </g>
</svg>